<?xml version="1.0" encoding="UTF-8"?>
<svg width="292px" height="41px" viewBox="0 0 292 41" version="1.1" xmlns="http://www.w3.org/2000/svg" xmlns:xlink="http://www.w3.org/1999/xlink">
    <title>Group 16</title>
    <defs>
        <polygon id="path-3" points="0.00039207168 0.529590822 45.7757409 0.529590822 45.7757409 10.7819712 0.00039207168 10.7819712"></polygon>
    </defs>
    <g stroke="none" stroke-width="1" fill="none" fill-rule="evenodd">
        <g transform="translate(-26.000000, -27.000000)">
            <g id="Group-12" transform="translate(26.000000, 27.000000)">
                <path d="M4.50588378,17.3185902 L4.50588378,11.8041021 L8.04825141,11.8041021 C8.67752646,11.8041021 9.2078034,11.863893 9.63810207,11.984455 C10.0693809,12.1050171 10.4183247,12.2785088 10.6868938,12.5059104 C10.9554629,12.7323318 11.1505186,13.0077621 11.2710806,13.3322014 C11.3906625,13.6566408 11.4514336,14.0222476 11.4514336,14.429022 C11.4514336,14.7995297 11.4004643,15.1582753 11.2985256,15.5062389 C11.196587,15.8532223 11.016234,16.1609986 10.7564865,16.4295677 C10.4977192,16.6981368 10.1526962,16.9137762 9.72141731,17.0755058 C9.29111864,17.2372354 8.74221828,17.3185902 8.07569643,17.3185902 L4.50588378,17.3185902 Z M7.4924898,3.52550855 C8.07569643,3.52550855 8.58048872,3.57353733 9.00686667,3.67057507 C9.43226444,3.76859299 9.78414877,3.9234613 10.0625197,4.13616019 C10.3399104,4.34983925 10.545748,4.63213086 10.6800326,4.9840152 C10.8143171,5.33589953 10.8819495,5.7612973 10.8819495,6.26118869 C10.8819495,6.75225847 10.8005946,7.17177517 10.638865,7.51875861 C10.4761553,7.86574204 10.2428726,8.1460733 9.93705673,8.35877218 C9.63124082,8.57245125 9.25191147,8.72731956 8.7980885,8.8243573 C8.34426553,8.92139504 7.82575073,8.970404 7.24254411,8.970404 L4.50588378,8.970404 L4.50588378,3.52550855 L7.4924898,3.52550855 Z M0.339142003,0.358549551 L0.339142003,20.5129943 L8.14528915,20.5129943 C9.3401276,20.5129943 10.397741,20.3630268 11.3191094,20.0621118 C12.2404778,19.7611968 13.0157996,19.3416801 13.6460548,18.8045419 C14.2753299,18.2683839 14.7546375,17.6332278 15.0839777,16.9020141 C15.4123377,16.1708004 15.5770078,15.3788156 15.5770078,14.5270399 C15.5770078,13.3596465 15.2476676,12.410833 14.5909476,11.6786391 C13.9332473,10.9474254 12.9187619,10.420089 11.5484713,10.0956497 C12.1601032,9.88295084 12.6874396,9.62320335 13.1324409,9.31738744 C13.5764621,9.01157153 13.9401086,8.67144935 14.2224002,8.29702089 C14.5046918,7.92161226 14.71347,7.52071897 14.8477545,7.09532119 C14.9820391,6.66894324 15.0486913,6.22492206 15.0486913,5.7612973 C15.0486913,4.93696659 14.910486,4.1920304 14.6321151,3.52550855 C14.3547244,2.85800651 13.9116834,2.29146293 13.3059326,1.82391746 C12.6992017,1.35637198 11.9170187,0.994685852 10.9584035,0.73983926 C9.9997882,0.484992668 8.84415692,0.358549551 7.4924898,0.358549551 L0.339142003,0.358549551 Z M27.1058756,17.1245148 L27.1058756,0.358549551 L22.9391338,0.358549551 L22.9391338,20.5129943 L34.8983002,20.5129943 L34.8983002,17.1245148 L27.1058756,17.1245148 Z M41.6076269,20.5139744 L45.8027938,20.5139744 L45.8027938,0.358549551 L41.6076269,0.358549551 L41.6076269,20.5139744 Z M67.7774313,0.358549551 L67.7774313,11.8874173 C67.7774313,12.1834314 67.7862529,12.4961086 67.8048763,12.8244686 C67.8234997,13.1538088 67.8509448,13.493931 67.8881916,13.8458153 L57.7756828,1.0113489 C57.6649225,0.872163452 57.5629839,0.760423023 57.470847,0.677107791 C57.37773,0.593792559 57.2806923,0.527140374 57.1787536,0.476171055 C57.076815,0.425201737 56.9631142,0.392855823 56.8386314,0.379133315 C56.7131685,0.365410806 56.5632011,0.358549551 56.3867688,0.358549551 L54.1921476,0.358549551 L54.1921476,20.5129943 L57.8737007,20.5129943 L57.8737007,8.85964375 C57.8737007,8.59107465 57.8658593,8.29898125 57.8521367,7.98434373 C57.8384142,7.6697062 57.8178305,7.35016778 57.7903855,7.02572847 L67.8333015,19.8053049 C68.0460004,20.0640722 68.2636002,20.2473657 68.4861009,20.3532251 C68.7076214,20.4600646 68.9810914,20.5129943 69.3055307,20.5129943 L71.4580042,20.5129943 L71.4580042,0.358549551 L67.7774313,0.358549551 Z M84.0150799,0.358549551 L79.8483382,0.358549551 L79.8483382,20.5129943 L84.0150799,20.5129943 L84.0150799,11.7766571 L85.1824734,11.7766571 C85.6176729,11.7766571 85.9558348,11.8295867 86.1959787,11.9364263 C86.4371028,12.0422856 86.6449007,12.2206782 86.821333,12.4706239 L92.0025602,19.7219896 C92.0858755,19.8513733 92.1740916,19.9650741 92.2662285,20.0621118 C92.3593455,20.1591496 92.4701057,20.2405044 92.5994894,20.3051963 C92.7298532,20.3698881 92.8798206,20.4208574 93.051352,20.4581042 C93.2228834,20.495351 93.428721,20.5129943 93.6698451,20.5129943 L97.377863,20.5129943 L90.7939993,11.109155 C90.5528752,10.7670725 90.3029295,10.4916421 90.0441622,10.282864 C89.7844147,10.075066 89.4933015,9.90549496 89.1688622,9.7761113 C89.6138635,9.54478901 90.0441622,9.16055877 90.4607384,8.62342057 L96.8779716,0.358549551 L93.2669914,0.358549551 C92.8494351,0.358549551 92.4975507,0.420300841 92.2113384,0.545763779 C91.9241459,0.670246537 91.6594975,0.895687753 91.4193536,1.21914689 L86.3214416,8.03923376 C86.0156257,8.46561171 85.5206352,8.6783106 84.8345098,8.6783106 L84.0150799,8.6783106 L84.0150799,0.358549551 Z" id="Fill-1" fill="#150F96"></path>
                <path d="M126.425572,6.46545804 L126.425572,13.6060635 L131.022612,13.6060635 L131.022612,12.3318306 L128.091876,12.3318306 L128.091876,10.6312196 L130.336487,10.6312196 L130.336487,9.40599564 L128.091876,9.40599564 L128.091876,7.739691 L131.022612,7.739691 L131.022612,6.46545804 L126.425572,6.46545804 Z M136.825273,6.46545804 L135.129563,6.46545804 L132.365458,13.6060635 L133.659294,13.6060635 C133.796519,13.6060635 133.91218,13.5688167 134.007258,13.4962834 C134.102335,13.42277 134.165067,13.3394548 134.198393,13.2482981 L134.61987,12.0034705 L137.334966,12.0034705 L137.756443,13.2482981 C137.79271,13.3531773 137.856421,13.4384529 137.949538,13.5051051 C138.042655,13.5727374 138.161257,13.6060635 138.305343,13.6060635 L139.589378,13.6060635 L136.825273,6.46545804 Z M135.65886,8.93060873 C135.707869,8.80612597 135.759818,8.65909909 135.815688,8.48952809 C135.871559,8.31995709 135.925468,8.13470322 135.977418,7.93572684 C136.033288,8.13176268 136.089158,8.31407601 136.146009,8.48168665 C136.203839,8.65027748 136.253828,8.79632418 136.295976,8.92080694 L136.952696,10.8762644 L135.00214,10.8762644 L135.65886,8.93060873 Z M145.539066,7.14668258 C145.411643,7.02906108 145.266576,6.92320173 145.104847,6.8300847 C144.943117,6.73696768 144.769625,6.65757316 144.583391,6.59092098 C144.397157,6.52328861 144.200141,6.47329947 143.992343,6.4389932 C143.785525,6.40468693 143.571846,6.3870437 143.353266,6.3870437 C142.961195,6.3870437 142.613231,6.44683463 142.309376,6.5664165 C142.00552,6.68501818 141.748713,6.84478739 141.539935,7.04376377 C141.330177,7.24274014 141.172368,7.47014172 141.064548,7.72498831 C140.956728,7.9798349 140.902818,8.24154275 140.902818,8.50913167 C140.902818,8.8423926 140.947907,9.12272385 141.040043,9.35012542 C141.1312,9.57654682 141.251762,9.76670158 141.399769,9.91862936 C141.548756,10.0705571 141.718327,10.1930795 141.907502,10.2861966 C142.096677,10.3793136 142.290752,10.4577279 142.490709,10.5204594 C142.689685,10.584171 142.884741,10.6429818 143.073915,10.6949313 C143.26309,10.7468808 143.432661,10.8076519 143.580668,10.8762644 C143.729655,10.944877 143.850217,11.0311328 143.941374,11.1360119 C144.032531,11.2408911 144.078599,11.3761558 144.078599,11.5427863 C144.078599,11.8299788 143.995284,12.0397371 143.828653,12.1730415 C143.662023,12.3053657 143.42776,12.3710377 143.127825,12.3710377 C142.905324,12.3710377 142.713209,12.339672 142.549519,12.2779207 C142.38583,12.2161694 142.241743,12.1475569 142.1153,12.0720831 C141.989837,11.9966093 141.877117,11.9279967 141.777138,11.8662454 C141.67814,11.8044941 141.579142,11.7731284 141.481124,11.7731284 C141.40565,11.7731284 141.336058,11.7907716 141.270386,11.8270383 C141.204714,11.8633049 141.154724,11.9103535 141.118458,11.9691642 L140.628368,12.7435058 C140.768534,12.8836714 140.933204,13.0110947 141.123359,13.1257757 C141.312533,13.2404567 141.51543,13.3384746 141.73107,13.42277 C141.946709,13.5051051 142.16921,13.5697969 142.399552,13.6158653 C142.629894,13.6619337 142.856316,13.6844778 143.078816,13.6844778 C143.48363,13.6844778 143.845316,13.6237067 144.163875,13.5011843 C144.482433,13.3786619 144.751002,13.2100711 144.967622,12.996392 C145.185221,12.7817328 145.350872,12.5308069 145.465553,12.2436144 C145.580234,11.9564219 145.637084,11.6476655 145.637084,11.3173451 C145.637084,11.0203508 145.591015,10.7655042 145.499859,10.5557458 C145.408702,10.3450073 145.28814,10.1656345 145.139153,10.0186076 C144.991146,9.87158076 144.820595,9.75101872 144.62946,9.65594134 C144.438325,9.56086395 144.243269,9.4785289 144.044293,9.40893618 C143.844336,9.33836327 143.64928,9.27465163 143.458146,9.21682105 C143.267011,9.15997066 143.09744,9.09723919 142.948452,9.02862665 C142.800445,8.9600141 142.679883,8.87865923 142.588727,8.78358185 C142.49659,8.68850446 142.451502,8.56990278 142.451502,8.42581644 C142.451502,8.20037522 142.526975,8.02198261 142.678903,7.88867824 C142.830831,7.75733422 143.062153,7.69068204 143.37287,7.69068204 C143.552243,7.69068204 143.712992,7.71420634 143.853158,7.76125494 C143.993323,7.80928372 144.118786,7.8622134 144.227586,7.92102415 C144.337366,7.9798349 144.435384,8.03276458 144.52164,8.08079336 C144.608876,8.12784196 144.689251,8.15136626 144.764724,8.15136626 C144.85,8.15136626 144.918613,8.13176268 144.972522,8.09255551 C145.026432,8.05334834 145.078382,7.99453759 145.127391,7.91612326 L145.539066,7.14668258 Z M153.586337,6.46545804 L152.116068,6.46545804 C152.047456,6.46545804 151.984724,6.47624001 151.926894,6.49780395 C151.870043,6.51838772 151.819074,6.54681291 151.774966,6.58111918 C151.730858,6.61444528 151.691651,6.65365245 151.657345,6.69580015 C151.623038,6.73794786 151.596573,6.78107574 151.57697,6.82322345 L150.577187,8.90120335 C150.498773,9.06489328 150.425259,9.21682105 150.356647,9.35698668 C150.288034,9.4971523 150.229223,9.63829811 150.180215,9.77846374 C150.127285,9.64123865 150.067494,9.5020532 149.998881,9.36188758 C149.930269,9.22172195 149.854795,9.06783382 149.77344,8.90120335 L148.763856,6.82322345 C148.710926,6.71834427 148.642313,6.63306868 148.558018,6.5664165 C148.472742,6.49878413 148.358061,6.46545804 148.214955,6.46545804 L146.754488,6.46545804 L149.342161,10.8909671 L149.342161,13.6060635 L150.998664,13.6060635 L150.998664,10.8909671 L153.586337,6.46545804 Z M153.946063,13.1679234 C153.990171,13.2708422 154.050942,13.3590584 154.127396,13.4345322 C154.20385,13.5100059 154.295007,13.5688167 154.399886,13.6109644 C154.503785,13.6531121 154.618466,13.6746761 154.742949,13.6746761 C154.863511,13.6746761 154.976231,13.6531121 155.081111,13.6109644 C155.185009,13.5688167 155.277146,13.5100059 155.355561,13.4345322 C155.433975,13.3590584 155.494746,13.2708422 155.538854,13.1679234 C155.582962,13.0640244 155.605506,12.9542443 155.605506,12.8366228 C155.605506,12.7190013 155.582962,12.6092213 155.538854,12.5082628 C155.494746,12.4073043 155.433975,12.3190882 155.355561,12.2436144 C155.277146,12.1681406 155.185009,12.1093299 155.081111,12.0652218 C154.976231,12.0201336 154.863511,11.9985696 154.742949,11.9985696 C154.618466,11.9985696 154.503785,12.0201336 154.399886,12.0652218 C154.295007,12.1093299 154.20385,12.1681406 154.127396,12.2436144 C154.050942,12.3190882 153.990171,12.4073043 153.946063,12.5082628 C153.901955,12.6092213 153.880391,12.7190013 153.880391,12.8366228 C153.880391,12.9542443 153.901955,13.0640244 153.946063,13.1679234 L153.946063,13.1679234 Z M160.339772,6.46545804 L160.339772,13.6060635 L164.936812,13.6060635 L164.936812,12.3318306 L162.006077,12.3318306 L162.006077,10.6312196 L164.250687,10.6312196 L164.250687,9.40599564 L162.006077,9.40599564 L162.006077,7.739691 L164.936812,7.739691 L164.936812,6.46545804 L160.339772,6.46545804 Z M166.856983,6.46545804 L166.856983,13.6060635 L168.523288,13.6060635 L168.523288,10.8272555 L170.963934,10.8272555 L170.963934,9.54812162 L168.523288,9.54812162 L168.523288,7.739691 L171.454024,7.739691 L171.454024,6.46545804 L166.856983,6.46545804 Z M173.296761,6.46545804 L173.296761,13.6060635 L174.963065,13.6060635 L174.963065,10.8272555 L177.403712,10.8272555 L177.403712,9.54812162 L174.963065,9.54812162 L174.963065,7.739691 L177.893801,7.739691 L177.893801,6.46545804 L173.296761,6.46545804 Z M186.517418,8.5973478 C186.339025,8.15332662 186.088099,7.76713602 185.76464,7.44073634 C185.441181,7.11433667 185.05205,6.85654954 184.596267,6.66933531 C184.140483,6.48114091 183.634711,6.3870437 183.078949,6.3870437 C182.524168,6.3870437 182.017415,6.48016073 181.559671,6.66639478 C181.102908,6.85262882 180.710836,7.10943577 180.386397,7.43583545 C180.060977,7.76223512 179.809071,8.14842573 179.631659,8.5924469 C179.453266,9.03646808 179.36407,9.51675589 179.36407,10.0333103 C179.36407,10.5498648 179.453266,11.0301526 179.631659,11.4741738 C179.809071,11.9181949 180.060977,12.3053657 180.386397,12.6327456 C180.710836,12.9620858 181.102908,13.2188927 181.559671,13.4051268 C182.017415,13.5913608 182.524168,13.6844778 183.078949,13.6844778 C183.634711,13.6844778 184.140483,13.5913608 184.596267,13.4051268 C185.05205,13.2188927 185.441181,12.9620858 185.76464,12.6327456 C186.088099,12.3053657 186.339025,11.9181949 186.517418,11.4741738 C186.69483,11.0301526 186.784027,10.5498648 186.784027,10.0333103 C186.784027,9.52067661 186.69483,9.04136898 186.517418,8.5973478 L186.517418,8.5973478 Z M184.951091,10.9919256 C184.859935,11.2742172 184.728591,11.5133809 184.557059,11.7094168 C184.385528,11.9054526 184.17577,12.0544398 183.926804,12.1573587 C183.678819,12.2612576 183.396527,12.312227 183.078949,12.312227 C182.759411,12.312227 182.474179,12.2612576 182.224233,12.1573587 C181.974287,12.0544398 181.763549,11.9054526 181.592017,11.7094168 C181.420486,11.5133809 181.289142,11.2742172 181.197005,10.9919256 C181.105848,10.7086538 181.05978,10.3891154 181.05978,10.0333103 C181.05978,9.68044582 181.105848,9.36286775 181.197005,9.07959597 C181.289142,8.79730436 181.420486,8.55814063 181.592017,8.36210479 C181.763549,8.16606895 181.974287,8.01610153 182.224233,7.91122236 C182.474179,7.80634318 182.759411,7.75439369 183.078949,7.75439369 C183.396527,7.75439369 183.678819,7.80634318 183.926804,7.91122236 C184.17577,8.01610153 184.385528,8.16606895 184.557059,8.36210479 C184.728591,8.55814063 184.859935,8.79730436 184.951091,9.07959597 C185.043228,9.36286775 185.088317,9.68044582 185.088317,10.0333103 C185.088317,10.3891154 185.043228,10.7086538 184.951091,10.9919256 L184.951091,10.9919256 Z M190.636131,10.9644806 C190.763554,10.9644806 190.862552,10.9840842 190.933125,11.0232913 C191.002718,11.0624985 191.064469,11.1281705 191.116419,11.2193272 L192.302435,13.2924062 C192.422997,13.5011843 192.622954,13.6060635 192.900345,13.6060635 L194.400019,13.6060635 L192.880741,11.1213092 C192.809188,11.0036877 192.724893,10.9037095 192.628835,10.8223546 C192.531797,10.7409997 192.427898,10.6723872 192.317138,10.616517 C192.549441,10.5283008 192.754298,10.4155802 192.932691,10.2783551 C193.110103,10.14113 193.261051,9.98528155 193.383573,9.81080965 C193.506096,9.63535757 193.598232,9.44520281 193.659984,9.23936518 C193.721735,9.03352754 193.753101,8.81494758 193.753101,8.58264511 C193.753101,8.27878956 193.701151,7.99747813 193.596272,7.739691 C193.491393,7.48190387 193.324762,7.25744283 193.09442,7.06826825 C192.864078,6.87909366 192.566104,6.7310866 192.202457,6.62522725 C191.837831,6.51838772 191.39773,6.46545804 190.881176,6.46545804 L188.558151,6.46545804 L188.558151,13.6060635 L190.214654,13.6060635 L190.214654,10.9644806 L190.636131,10.9644806 Z M190.214654,7.70538473 L190.881176,7.70538473 C191.309514,7.70538473 191.625132,7.79360086 191.829989,7.97003311 C192.033866,8.14646537 192.135805,8.39151017 192.135805,8.70516751 C192.135805,8.86199618 192.113261,9.00804288 192.067192,9.14330761 C192.021124,9.27955252 191.947611,9.39815421 191.846652,9.49911266 C191.745694,9.60007112 191.61533,9.67946564 191.457521,9.73729621 C191.298732,9.7941466 191.106617,9.8225718 190.881176,9.8225718 L190.214654,9.8225718 L190.214654,7.70538473 Z M195.272378,6.46545804 L195.272378,7.77889817 L197.281746,7.77889817 L197.281746,13.6060635 L198.938249,13.6060635 L198.938249,7.77889817 L200.947616,7.77889817 L200.947616,6.46545804 L195.272378,6.46545804 Z M204.270423,6.46545804 L202.613921,6.46545804 L202.613921,13.6060635 L206.916907,13.6060635 L206.916907,12.2828216 L204.270423,12.2828216 L204.270423,6.46545804 Z M208.68123,6.46545804 L208.68123,13.6060635 L213.27827,13.6060635 L213.27827,12.3318306 L210.347535,12.3318306 L210.347535,10.6312196 L212.592145,10.6312196 L212.592145,9.40599564 L210.347535,9.40599564 L210.347535,7.739691 L213.27827,7.739691 L213.27827,6.46545804 L208.68123,6.46545804 Z M219.590624,7.14668258 C219.463201,7.02906108 219.318135,6.92320173 219.156405,6.8300847 C218.994675,6.73696768 218.821184,6.65757316 218.63495,6.59092098 C218.448716,6.52328861 218.2517,6.47329947 218.043902,6.4389932 C217.837084,6.40468693 217.623405,6.3870437 217.404825,6.3870437 C217.012753,6.3870437 216.664789,6.44683463 216.360934,6.5664165 C216.057078,6.68501818 215.800271,6.84478739 215.591493,7.04376377 C215.382715,7.24274014 215.223926,7.47014172 215.116106,7.72498831 C215.008287,7.9798349 214.954377,8.24154275 214.954377,8.50913167 C214.954377,8.8423926 215.000445,9.12272385 215.091602,9.35012542 C215.182759,9.57654682 215.303321,9.76670158 215.451328,9.91862936 C215.600315,10.0705571 215.769886,10.1930795 215.95906,10.2861966 C216.148235,10.3793136 216.343291,10.4577279 216.542267,10.5204594 C216.741243,10.584171 216.936299,10.6429818 217.125474,10.6949313 C217.314648,10.7468808 217.484219,10.8076519 217.632226,10.8762644 C217.781214,10.944877 217.901776,11.0311328 217.992932,11.1360119 C218.084089,11.2408911 218.130157,11.3761558 218.130157,11.5427863 C218.130157,11.8299788 218.046842,12.0397371 217.880212,12.1730415 C217.713581,12.3053657 217.480299,12.3710377 217.179384,12.3710377 C216.956883,12.3710377 216.764768,12.339672 216.601078,12.2779207 C216.437388,12.2161694 216.293302,12.1475569 216.166858,12.0720831 C216.041395,11.9966093 215.928675,11.9279967 215.828697,11.8662454 C215.729699,11.8044941 215.6307,11.7731284 215.532682,11.7731284 C215.457209,11.7731284 215.387616,11.7907716 215.321944,11.8270383 C215.256272,11.8633049 215.206283,11.9103535 215.170016,11.9691642 L214.679927,12.7435058 C214.820092,12.8836714 214.985742,13.0110947 215.174917,13.1257757 C215.364092,13.2404567 215.566989,13.3384746 215.782628,13.42277 C215.998268,13.5051051 216.220768,13.5697969 216.45111,13.6158653 C216.681453,13.6619337 216.907874,13.6844778 217.130375,13.6844778 C217.535189,13.6844778 217.896875,13.6237067 218.215433,13.5011843 C218.533991,13.3786619 218.80256,13.2100711 219.01918,12.996392 C219.23678,12.7817328 219.40243,12.5308069 219.517111,12.2436144 C219.631792,11.9564219 219.688642,11.6476655 219.688642,11.3173451 C219.688642,11.0203508 219.642574,10.7655042 219.551417,10.5557458 C219.460261,10.3450073 219.339698,10.1656345 219.190711,10.0186076 C219.042704,9.87158076 218.872153,9.75101872 218.681018,9.65594134 C218.489883,9.56086395 218.294827,9.4785289 218.095851,9.40893618 C217.896875,9.33836327 217.700839,9.27465163 217.509704,9.21682105 C217.318569,9.15997066 217.148998,9.09723919 217.000011,9.02862665 C216.852004,8.9600141 216.731442,8.87865923 216.640285,8.78358185 C216.549128,8.68850446 216.50306,8.56990278 216.50306,8.42581644 C216.50306,8.20037522 216.578534,8.02198261 216.730461,7.88867824 C216.882389,7.75733422 217.113712,7.69068204 217.424428,7.69068204 C217.603801,7.69068204 217.764551,7.71420634 217.904716,7.76125494 C218.044882,7.80928372 218.170345,7.8622134 218.279145,7.92102415 C218.388925,7.9798349 218.486943,8.03276458 218.573198,8.08079336 C218.660434,8.12784196 218.740809,8.15136626 218.816283,8.15136626 C218.901558,8.15136626 218.970171,8.13176268 219.024081,8.09255551 C219.077991,8.05334834 219.12994,7.99453759 219.178949,7.91612326 L219.590624,7.14668258 Z M225.883375,7.14668258 C225.755952,7.02906108 225.610885,6.92320173 225.449155,6.8300847 C225.287426,6.73696768 225.113934,6.65757316 224.9277,6.59092098 C224.741466,6.52328861 224.54445,6.47329947 224.336652,6.4389932 C224.129834,6.40468693 223.916155,6.3870437 223.697575,6.3870437 C223.305504,6.3870437 222.95754,6.44683463 222.653684,6.5664165 C222.349829,6.68501818 222.093022,6.84478739 221.884244,7.04376377 C221.674485,7.24274014 221.516677,7.47014172 221.408857,7.72498831 C221.301037,7.9798349 221.247127,8.24154275 221.247127,8.50913167 C221.247127,8.8423926 221.292215,9.12272385 221.384352,9.35012542 C221.475509,9.57654682 221.596071,9.76670158 221.744078,9.91862936 C221.893065,10.0705571 222.061656,10.1930795 222.251811,10.2861966 C222.440985,10.3793136 222.635061,10.4577279 222.835018,10.5204594 C223.033994,10.584171 223.228069,10.6429818 223.418224,10.6949313 C223.607399,10.7468808 223.77697,10.8076519 223.924977,10.8762644 C224.073964,10.944877 224.193546,11.0311328 224.285683,11.1360119 C224.376839,11.2408911 224.422908,11.3761558 224.422908,11.5427863 C224.422908,11.8299788 224.339593,12.0397371 224.172962,12.1730415 C224.006332,12.3053657 223.772069,12.3710377 223.472134,12.3710377 C223.249633,12.3710377 223.056538,12.339672 222.893828,12.2779207 C222.730138,12.2161694 222.586052,12.1475569 222.459609,12.0720831 C222.334146,11.9966093 222.221425,11.9279967 222.121447,11.8662454 C222.022449,11.8044941 221.923451,11.7731284 221.825433,11.7731284 C221.749959,11.7731284 221.679386,11.7907716 221.614694,11.8270383 C221.549022,11.8633049 221.498053,11.9103535 221.462767,11.9691642 L220.972677,12.7435058 C221.112843,12.8836714 221.277513,13.0110947 221.467668,13.1257757 C221.656842,13.2404567 221.859739,13.3384746 222.075379,13.42277 C222.291018,13.5051051 222.513519,13.5697969 222.743861,13.6158653 C222.974203,13.6619337 223.200624,13.6844778 223.423125,13.6844778 C223.827939,13.6844778 224.189625,13.6237067 224.508183,13.5011843 C224.826742,13.3786619 225.095311,13.2100711 225.31193,12.996392 C225.52953,12.7817328 225.69518,12.5308069 225.809861,12.2436144 C225.923562,11.9564219 225.981393,11.6476655 225.981393,11.3173451 C225.981393,11.0203508 225.935324,10.7655042 225.844168,10.5557458 C225.752031,10.3450073 225.632449,10.1656345 225.483462,10.0186076 C225.335455,9.87158076 225.164903,9.75101872 224.973769,9.65594134 C224.782634,9.56086395 224.587578,9.4785289 224.388602,9.40893618 C224.188645,9.33836327 223.993589,9.27465163 223.802454,9.21682105 C223.611319,9.15997066 223.441748,9.09723919 223.292761,9.02862665 C223.144754,8.9600141 223.024192,8.87865923 222.933035,8.78358185 C222.840899,8.68850446 222.79581,8.56990278 222.79581,8.42581644 C222.79581,8.20037522 222.871284,8.02198261 223.023212,7.88867824 C223.17514,7.75733422 223.406462,7.69068204 223.717179,7.69068204 C223.896552,7.69068204 224.056321,7.71420634 224.197467,7.76125494 C224.337632,7.80928372 224.463095,7.8622134 224.571895,7.92102415 C224.681675,7.9798349 224.779693,8.03276458 224.865949,8.08079336 C224.953185,8.12784196 225.033559,8.15136626 225.109033,8.15136626 C225.193329,8.15136626 225.262921,8.13176268 225.316831,8.09255551 C225.370741,8.05334834 225.422691,7.99453759 225.4717,7.91612326 L225.883375,7.14668258 Z M227.556541,13.1679234 C227.600649,13.2708422 227.66142,13.3590584 227.737874,13.4345322 C227.815308,13.5100059 227.905485,13.5688167 228.010364,13.6109644 C228.114263,13.6531121 228.228944,13.6746761 228.353426,13.6746761 C228.473988,13.6746761 228.586709,13.6531121 228.691588,13.6109644 C228.795487,13.5688167 228.887624,13.5100059 228.966038,13.4345322 C229.044453,13.3590584 229.105224,13.2708422 229.149332,13.1679234 C229.19344,13.0640244 229.215984,12.9542443 229.215984,12.8366228 C229.215984,12.7190013 229.19344,12.6092213 229.149332,12.5082628 C229.105224,12.4073043 229.044453,12.3190882 228.966038,12.2436144 C228.887624,12.1681406 228.795487,12.1093299 228.691588,12.0652218 C228.586709,12.0201336 228.473988,11.9985696 228.353426,11.9985696 C228.228944,11.9985696 228.114263,12.0201336 228.010364,12.0652218 C227.905485,12.1093299 227.815308,12.1681406 227.737874,12.2436144 C227.66142,12.3190882 227.600649,12.4073043 227.556541,12.5082628 C227.512433,12.6092213 227.490869,12.7190013 227.490869,12.8366228 C227.490869,12.9542443 227.512433,13.0640244 227.556541,13.1679234 L227.556541,13.1679234 Z M234.097277,13.6060635 L235.763581,13.6060635 L235.763581,6.46545804 L234.097277,6.46545804 L234.097277,13.6060635 Z M238.939362,6.46545804 L238.067002,6.46545804 L238.067002,13.6060635 L239.527469,13.6060635 L239.527469,9.77846374 C239.527469,9.67358456 239.523549,9.56184413 239.517668,9.44324245 C239.510806,9.32366059 239.502965,9.20211837 239.493163,9.07763561 L242.860079,13.3316133 C242.941433,13.4364925 243.026709,13.5080456 243.114925,13.5472528 C243.203141,13.5864599 243.310961,13.6060635 243.438384,13.6060635 L244.300942,13.6060635 L244.300942,6.46545804 L242.840475,6.46545804 L242.840475,10.2440489 C242.840475,10.3587298 242.843416,10.480272 242.850277,10.6096557 C242.856158,10.7380592 242.86596,10.8713635 242.879682,11.0085886 L239.488262,6.72030463 C239.442194,6.66443442 239.401026,6.62032635 239.36574,6.58798044 C239.329473,6.55563453 239.292226,6.53014987 239.253019,6.51250664 C239.213812,6.49388324 239.169704,6.48212109 239.120695,6.47525983 C239.071686,6.46839858 239.010915,6.46545804 238.939362,6.46545804 L238.939362,6.46545804 Z M250.847559,7.14668258 C250.720136,7.02906108 250.576049,6.92320173 250.41432,6.8300847 C250.25259,6.73696768 250.078118,6.65757316 249.892864,6.59092098 C249.70565,6.52328861 249.509614,6.47329947 249.301816,6.4389932 C249.094018,6.40468693 248.881319,6.3870437 248.661759,6.3870437 C248.269688,6.3870437 247.921724,6.44683463 247.617868,6.5664165 C247.314013,6.68501818 247.058186,6.84478739 246.848428,7.04376377 C246.63965,7.24274014 246.480861,7.47014172 246.373041,7.72498831 C246.265221,7.9798349 246.211311,8.24154275 246.211311,8.50913167 C246.211311,8.8423926 246.25738,9.12272385 246.348536,9.35012542 C246.440673,9.57654682 246.560255,9.76670158 246.709242,9.91862936 C246.85823,10.0705571 247.02682,10.1930795 247.215995,10.2861966 C247.40615,10.3793136 247.600225,10.4577279 247.799202,10.5204594 C247.999158,10.584171 248.193234,10.6429818 248.382408,10.6949313 C248.572563,10.7468808 248.741154,10.8076519 248.890141,10.8762644 C249.039128,10.944877 249.15871,11.0311328 249.249867,11.1360119 C249.342004,11.2408911 249.387092,11.3761558 249.387092,11.5427863 C249.387092,11.8299788 249.303777,12.0397371 249.137146,12.1730415 C248.970516,12.3053657 248.737233,12.3710377 248.436318,12.3710377 C248.214798,12.3710377 248.021702,12.339672 247.858012,12.2779207 C247.695303,12.2161694 247.550236,12.1475569 247.424773,12.0720831 C247.29931,11.9966093 247.18659,11.9279967 247.086611,11.8662454 C246.986633,11.8044941 246.887635,11.7731284 246.789617,11.7731284 C246.715123,11.7731284 246.64455,11.7907716 246.578878,11.8270383 C246.514187,11.8633049 246.463217,11.9103535 246.426951,11.9691642 L245.936861,12.7435058 C246.078007,12.8836714 246.242677,13.0110947 246.431852,13.1257757 C246.622006,13.2404567 246.823923,13.3384746 247.039563,13.42277 C247.255202,13.5051051 247.478683,13.5697969 247.709025,13.6158653 C247.939367,13.6619337 248.165789,13.6844778 248.387309,13.6844778 C248.793103,13.6844778 249.154789,13.6237067 249.473348,13.5011843 C249.791906,13.3786619 250.059495,13.2100711 250.277095,12.996392 C250.494694,12.7817328 250.660345,12.5308069 250.774045,12.2436144 C250.888726,11.9564219 250.945577,11.6476655 250.945577,11.3173451 C250.945577,11.0203508 250.900489,10.7655042 250.808352,10.5557458 C250.717195,10.3450073 250.597613,10.1656345 250.448626,10.0186076 C250.299639,9.87158076 250.130068,9.75101872 249.938933,9.65594134 C249.747798,9.56086395 249.552742,9.4785289 249.352786,9.40893618 C249.153809,9.33836327 248.958754,9.27465163 248.767619,9.21682105 C248.576484,9.15997066 248.406913,9.09723919 248.257925,9.02862665 C248.108938,8.9600141 247.989356,8.87865923 247.897219,8.78358185 C247.806063,8.68850446 247.759994,8.56990278 247.759994,8.42581644 C247.759994,8.20037522 247.836448,8.02198261 247.988376,7.88867824 C248.140304,7.75733422 248.371626,7.69068204 248.681363,7.69068204 C248.861716,7.69068204 249.021485,7.71420634 249.161651,7.76125494 C249.302796,7.80928372 249.427279,7.8622134 249.537059,7.92102415 C249.646839,7.9798349 249.744857,8.03276458 249.831113,8.08079336 C249.917369,8.12784196 249.998724,8.15136626 250.073217,8.15136626 C250.158493,8.15136626 250.228086,8.13176268 250.281995,8.09255551 C250.335905,8.05334834 250.386875,7.99453759 250.435884,7.91612326 L250.847559,7.14668258 Z M255.124081,12.1877442 C254.949609,12.1132506 254.801602,12.0073912 254.68006,11.8682058 C254.559498,11.7300005 254.467361,11.5614097 254.403649,11.3634135 C254.339937,11.1663975 254.307591,10.9419364 254.307591,10.6900304 L254.307591,6.46545804 L252.651089,6.46545804 L252.651089,10.6949313 C252.651089,11.1330714 252.721662,11.5349449 252.861827,11.9005517 C253.002973,12.2661585 253.20489,12.5817762 253.469538,12.8464246 C253.734187,13.111073 254.056666,13.3169106 254.435015,13.4639375 C254.814344,13.6109644 255.242682,13.6844778 255.71905,13.6844778 C256.193456,13.6844778 256.619834,13.6109644 256.998183,13.4639375 C257.377513,13.3169106 257.699011,13.111073 257.96366,12.8464246 C258.228308,12.5817762 258.432186,12.2661585 258.574312,11.9005517 C258.716437,11.5349449 258.78701,11.1330714 258.78701,10.6949313 L258.78701,6.46545804 L257.130508,6.46545804 L257.130508,10.6949313 C257.130508,10.9468373 257.099142,11.1712984 257.03543,11.3692946 C256.971719,11.5663106 256.879582,11.7339212 256.758039,11.8711463 C256.637477,12.0083714 256.48947,12.1132506 256.314998,12.1877442 C256.140527,12.2612576 255.94155,12.2975243 255.71905,12.2975243 C255.497529,12.2975243 255.298553,12.2612576 255.124081,12.1877442 L255.124081,12.1877442 Z M262.923367,10.9644806 C263.05079,10.9644806 263.149788,10.9840842 263.220361,11.0232913 C263.290934,11.0624985 263.351705,11.1281705 263.403654,11.2193272 L264.589671,13.2924062 C264.711213,13.5011843 264.91019,13.6060635 265.187581,13.6060635 L266.687255,13.6060635 L265.167977,11.1213092 C265.096424,11.0036877 265.012129,10.9037095 264.916071,10.8223546 C264.820013,10.7409997 264.716114,10.6723872 264.604374,10.616517 C264.836676,10.5283008 265.041534,10.4155802 265.219926,10.2783551 C265.398319,10.14113 265.548287,9.98528155 265.670809,9.81080965 C265.793331,9.63535757 265.885468,9.44520281 265.947219,9.23936518 C266.009951,9.03352754 266.040336,8.81494758 266.040336,8.58264511 C266.040336,8.27878956 265.988387,7.99747813 265.883508,7.739691 C265.779609,7.48190387 265.611998,7.25744283 265.381656,7.06826825 C265.151314,6.87909366 264.85432,6.7310866 264.489693,6.62522725 C264.125066,6.51838772 263.684966,6.46545804 263.168411,6.46545804 L260.845387,6.46545804 L260.845387,13.6060635 L262.50189,13.6060635 L262.50189,10.9644806 L262.923367,10.9644806 Z M262.50189,7.70538473 L263.168411,7.70538473 C263.59675,7.70538473 263.913348,7.79360086 264.117225,7.97003311 C264.321102,8.14646537 264.423041,8.39151017 264.423041,8.70516751 C264.423041,8.86199618 264.400497,9.00804288 264.354428,9.14330761 C264.30934,9.27955252 264.235827,9.39815421 264.133888,9.49911266 C264.032929,9.60007112 263.903546,9.67946564 263.744757,9.73729621 C263.585968,9.7941466 263.393853,9.8225718 263.168411,9.8225718 L262.50189,9.8225718 L262.50189,7.70538473 Z M268.343758,6.46545804 L268.343758,13.6060635 L272.940798,13.6060635 L272.940798,12.3318306 L270.010062,12.3318306 L270.010062,10.6312196 L272.254673,10.6312196 L272.254673,9.40599564 L270.010062,9.40599564 L270.010062,7.739691 L272.940798,7.739691 L272.940798,6.46545804 L268.343758,6.46545804 Z M281.074325,8.61009013 C280.895932,8.17391038 280.645007,7.79654139 280.321547,7.47994351 C279.998088,7.16334563 279.608957,6.91438011 279.153174,6.73500732 C278.69739,6.55563453 278.191618,6.46545804 277.635856,6.46545804 L274.861949,6.46545804 L274.861949,13.6060635 L277.635856,13.6060635 C278.191618,13.6060635 278.69739,13.5168672 279.153174,13.3384746 C279.608957,13.1610622 279.998088,12.9120966 280.321547,12.5945186 C280.645007,12.2759603 280.895932,11.8976112 281.074325,11.4624116 C281.251737,11.0252517 281.340934,10.5498648 281.340934,10.0333103 C281.340934,9.52067661 281.251737,9.04626987 281.074325,8.61009013 L281.074325,8.61009013 Z M279.507999,10.9938859 C279.416842,11.2781379 279.285498,11.519262 279.113967,11.716278 C278.942435,11.9142742 278.731697,12.066202 278.483711,12.1730415 C278.235726,12.2789009 277.952454,12.3318306 277.635856,12.3318306 L276.528254,12.3318306 L276.528254,7.739691 L277.635856,7.739691 C277.952454,7.739691 278.235726,7.79262068 278.483711,7.89946021 C278.731697,8.00531956 278.942435,8.15724734 279.113967,8.35524354 C279.285498,8.55225956 279.416842,8.79338364 279.507999,9.07763561 C279.599155,9.36188758 279.645224,9.68044582 279.645224,10.0333103 C279.645224,10.3891154 279.599155,10.709634 279.507999,10.9938859 L279.507999,10.9938859 Z M282.642612,13.1679234 C282.68672,13.2708422 282.746511,13.3590584 282.823945,13.4345322 C282.900399,13.5100059 282.990575,13.5688167 283.095455,13.6109644 C283.200334,13.6531121 283.314035,13.6746761 283.438517,13.6746761 C283.559079,13.6746761 283.6718,13.6531121 283.776679,13.6109644 C283.881558,13.5688167 283.972715,13.5100059 284.051129,13.4345322 C284.129544,13.3590584 284.191295,13.2708422 284.235403,13.1679234 C284.279511,13.0640244 284.301075,12.9542443 284.301075,12.8366228 C284.301075,12.7190013 284.279511,12.6092213 284.235403,12.5082628 C284.191295,12.4073043 284.129544,12.3190882 284.051129,12.2436144 C283.972715,12.1681406 283.881558,12.1093299 283.776679,12.0652218 C283.6718,12.0201336 283.559079,11.9985696 283.438517,11.9985696 C283.314035,11.9985696 283.200334,12.0201336 283.095455,12.0652218 C282.990575,12.1093299 282.900399,12.1681406 282.823945,12.2436144 C282.746511,12.3190882 282.68672,12.4073043 282.642612,12.5082628 C282.598504,12.6092213 282.57596,12.7190013 282.57596,12.8366228 C282.57596,12.9542443 282.598504,13.0640244 282.642612,13.1679234 L282.642612,13.1679234 Z" id="Fill-3" fill="#150F96"></path>
                <path d="M102.401085,0.881573172 C102.256019,0.740427368 102.086448,0.632607656 101.892372,0.558114036 C101.698297,0.483620417 101.483638,0.446373608 101.248395,0.446373608 C101.038636,0.446373608 100.853382,0.478719521 100.690673,0.543411348 C100.528943,0.608103176 100.393678,0.694358945 100.283898,0.802178657 C100.174118,0.909998369 100.089823,1.03350095 100.031992,1.17268639 C99.9741616,1.31187184 99.9457365,1.45595818 99.9457365,1.60494542 C99.9457365,1.79117947 99.9741616,1.94702796 100.031992,2.07347108 C100.089823,2.20089438 100.166277,2.30577355 100.260374,2.39006896 C100.354471,2.47436437 100.461311,2.54297692 100.582853,2.59590659 C100.703415,2.64883627 100.825937,2.69588487 100.95238,2.73509204 C101.079804,2.77625957 101.202326,2.81546673 101.322888,2.85369372 C101.44345,2.89094053 101.55127,2.93798913 101.645367,2.99287917 C101.739464,3.0477692 101.814938,3.11638175 101.873749,3.19773662 C101.930599,3.2790915 101.960005,3.38299049 101.960005,3.51041379 C101.960005,3.62607493 101.940401,3.73095411 101.901194,3.82505131 C101.861987,3.91914851 101.806117,4.00050339 101.732603,4.06813575 C101.65811,4.13576812 101.568913,4.18771761 101.463054,4.22496442 C101.357194,4.26221123 101.236632,4.28083464 101.101368,4.28083464 C100.938658,4.28083464 100.800453,4.25829052 100.688712,4.21418245 C100.575011,4.17007439 100.479934,4.12204561 100.399559,4.06911593 C100.321145,4.01618625 100.254493,3.96717729 100.201563,3.92404941 C100.148634,3.87994135 100.101585,3.85739722 100.060417,3.85739722 C100.032972,3.85739722 100.007488,3.86523866 99.9849436,3.87994135 C99.9623995,3.89464403 99.9437761,3.91228726 99.9280932,3.9338512 L99.7634231,4.20438066 C99.9222121,4.37297148 100.113347,4.50725603 100.337808,4.60527395 C100.562269,4.70525223 100.811235,4.75426119 101.083725,4.75426119 C101.307205,4.75426119 101.506182,4.71995492 101.681634,4.65134238 C101.857086,4.58272983 102.005093,4.48863263 102.125655,4.36905077 C102.246217,4.2494689 102.338354,4.1083231 102.401085,3.94757371 C102.463817,3.78486396 102.495183,3.61235242 102.495183,3.42807873 C102.495183,3.25360684 102.465777,3.10657996 102.407947,2.98699809 C102.350116,2.86741623 102.273662,2.76645777 102.178585,2.68412272 C102.083507,2.60178767 101.975688,2.5341553 101.855126,2.47926527 C101.734563,2.42633559 101.612041,2.37732663 101.484618,2.33419875 C101.358175,2.29107086 101.235652,2.24990334 101.11509,2.20873581 C100.993548,2.16952864 100.885728,2.12149986 100.790651,2.06660983 C100.695574,2.01171979 100.61912,1.94604778 100.562269,1.86861363 C100.503458,1.79117947 100.475033,1.69316155 100.475033,1.57554005 C100.475033,1.4834032 100.491696,1.39812761 100.525022,1.31775292 C100.558348,1.23933858 100.607357,1.16974586 100.67401,1.11093511 C100.738701,1.05212435 100.821036,1.00605593 100.919054,0.97076948 C101.017072,0.937443387 101.129793,0.919800161 101.257216,0.919800161 C101.392481,0.919800161 101.507162,0.936463208 101.603219,0.9697893 C101.697317,1.00311539 101.778672,1.0403622 101.846304,1.07956937 C101.913936,1.1207369 101.970787,1.15700353 102.013915,1.19032962 C102.058023,1.22365571 102.09723,1.24031876 102.130556,1.24031876 C102.161922,1.24031876 102.187406,1.23345751 102.20701,1.21777464 C102.226613,1.20307195 102.245237,1.18150801 102.26288,1.15210263 L102.401085,0.881573172 Z M105.294574,3.18401411 L103.839008,0.59045995 C103.813524,0.545371707 103.787059,0.517926689 103.759614,0.508124897 C103.732169,0.498323105 103.692962,0.493422209 103.641992,0.493422209 L103.221495,0.493422209 L103.221495,4.70721259 L103.721387,4.70721259 L103.721387,1.6108265 C103.721387,1.56965897 103.719426,1.52457073 103.716486,1.47556177 C103.713545,1.42655281 103.709625,1.37656367 103.703744,1.32559435 L105.179893,3.96913765 C105.228902,4.05735378 105.297515,4.10146184 105.385731,4.10146184 L105.468066,4.10146184 C105.556282,4.10146184 105.624895,4.05735378 105.673904,3.96913765 L107.117708,1.33441596 C107.113787,1.38342492 107.110846,1.4314537 107.108886,1.47850231 C107.106926,1.52555091 107.105946,1.56965897 107.105946,1.6108265 L107.105946,4.70721259 L107.605837,4.70721259 L107.605837,0.493422209 L107.18534,0.493422209 C107.134371,0.493422209 107.095164,0.498323105 107.067719,0.508124897 C107.040274,0.517926689 107.013809,0.545371707 106.988324,0.59045995 L105.562163,3.18107358 C105.534718,3.23204289 105.510214,3.28203203 105.48865,3.33300135 C105.467086,3.38201031 105.446502,3.43493999 105.426899,3.48983002 C105.407295,3.43690035 105.386711,3.38495085 105.366127,3.33300135 C105.345544,3.28105185 105.322019,3.23106271 105.294574,3.18401411 L105.294574,3.18401411 Z" id="Fill-5" fill="#150F96"></path>
                <path d="M286.909038,6.40860765 C286.788476,6.29098614 286.64635,6.20080966 286.48462,6.13905837 C286.322891,6.07730708 286.144498,6.04594134 285.948462,6.04594134 C285.77399,6.04594134 285.619122,6.07338636 285.483857,6.12631604 C285.349573,6.18120607 285.235872,6.25275915 285.144715,6.34195546 C285.053559,6.43213195 284.982986,6.53505076 284.934957,6.65071191 C284.886928,6.76735323 284.862424,6.8869351 284.862424,7.01141785 C284.862424,7.16628617 284.886928,7.29665 284.934957,7.40250935 C284.982986,7.50738853 285.046697,7.59560466 285.125112,7.66617756 C285.203526,7.73577028 285.292722,7.79360086 285.393681,7.83770892 C285.493659,7.88181698 285.596578,7.92004397 285.702437,7.95337006 C285.807316,7.98669616 285.910235,8.02002225 286.011194,8.05138798 C286.111172,8.0837339 286.200368,8.12196089 286.278783,8.16802931 C286.358177,8.21409773 286.420909,8.27094813 286.468937,8.33858049 C286.516966,8.40621286 286.541471,8.4934488 286.541471,8.59930816 C286.541471,8.69536572 286.524808,8.78358185 286.492462,8.86199618 C286.460116,8.94041052 286.413067,9.0070627 286.351316,9.0639131 C286.290545,9.11978331 286.215071,9.16389138 286.126855,9.19427693 C286.038639,9.22564267 285.93866,9.24132553 285.82594,9.24132553 C285.690675,9.24132553 285.575994,9.22270213 285.481897,9.1864355 C285.3878,9.14918869 285.307425,9.10900134 285.241753,9.06489328 C285.175101,9.02078521 285.120211,8.98059787 285.076103,8.94335106 C285.031995,8.90708443 284.992787,8.88846102 284.958481,8.88846102 C284.935937,8.88846102 284.914373,8.8943421 284.89575,8.90708443 C284.877126,8.91884658 284.861443,8.93452944 284.847721,8.95217267 L284.710496,9.17761389 C284.84282,9.31777951 285.002589,9.42951994 285.189803,9.51185499 C285.377018,9.59419005 285.583835,9.63535757 285.811237,9.63535757 C285.997471,9.63535757 286.164102,9.60693238 286.310148,9.55008198 C286.456195,9.49323159 286.579698,9.41481725 286.679676,9.31483897 C286.780634,9.2148607 286.857088,9.09821937 286.909038,8.96295464 C286.960987,8.82867009 286.987452,8.68458375 286.987452,8.53069561 C286.987452,8.38562909 286.962948,8.26310669 286.914919,8.16312841 C286.86689,8.06315014 286.803178,7.97885472 286.723784,7.91122236 C286.644389,7.84162964 286.555193,7.78575942 286.454235,7.74067118 C286.354256,7.69558294 286.251338,7.65539559 286.145478,7.61912896 C286.040599,7.58286233 285.93768,7.54855606 285.836722,7.51522996 C285.736743,7.48190387 285.646567,7.44171652 285.567172,7.39662828 C285.487778,7.35055986 285.424066,7.29566982 285.376038,7.23097799 C285.328009,7.16628617 285.303504,7.08493129 285.303504,6.98691337 C285.303504,6.9104594 285.318207,6.83890631 285.345652,6.77225413 C285.373097,6.70658212 285.414264,6.64875155 285.469155,6.59974259 C285.524045,6.55073363 285.592657,6.51152646 285.674012,6.48310126 C285.755367,6.45467607 285.849464,6.44095356 285.955323,6.44095356 C286.068044,6.44095356 286.164102,6.45467607 286.243496,6.48212109 C286.322891,6.5095661 286.390523,6.54093184 286.447373,6.57425793 C286.503244,6.60758402 286.550292,6.63796958 286.586559,6.6654146 C286.623806,6.69383979 286.656152,6.7075623 286.683597,6.7075623 C286.710061,6.7075623 286.730645,6.70168123 286.747308,6.6889389 C286.763971,6.67717675 286.778674,6.65855334 286.793377,6.63404886 L286.909038,6.40860765 Z M289.320279,8.32779852 L288.106817,6.16650338 C288.086233,6.12827639 288.063689,6.10573227 288.041145,6.09691066 C288.018601,6.08906923 287.985275,6.08514851 287.943127,6.08514851 L287.592223,6.08514851 L287.592223,9.59713058 L288.008799,9.59713058 L288.008799,7.01631875 C288.008799,6.98201248 288.007819,6.94476567 288.005858,6.90359814 C288.002918,6.86243062 287.998997,6.82126309 287.994096,6.77911538 L289.224221,8.98157805 C289.265389,9.05509149 289.322239,9.0923383 289.395752,9.0923383 L289.464365,9.0923383 C289.537878,9.0923383 289.595709,9.05509149 289.635896,8.98157805 L290.839556,6.78597664 C290.836616,6.82714416 290.833675,6.86635133 290.831715,6.90653868 C290.830735,6.94574585 290.829755,6.98201248 290.829755,7.01631875 L290.829755,9.59713058 L291.246331,9.59713058 L291.246331,6.08514851 L290.895427,6.08514851 C290.853279,6.08514851 290.820933,6.08906923 290.797409,6.09691066 C290.774865,6.10573227 290.753301,6.12827639 290.731737,6.16650338 L289.542779,8.32485798 C289.520235,8.36700569 289.499651,8.40915339 289.482008,8.4513011 C289.464365,8.49246862 289.446722,8.53657669 289.430059,8.58166493 C289.414376,8.53853705 289.397713,8.49442898 289.38007,8.4513011 C289.363406,8.40817321 289.342823,8.36602551 289.320279,8.32779852 L289.320279,8.32779852 Z" id="Fill-7" fill="#150F96"></path>
                <g  transform="translate(0.000000, 29.279913)">
                    <mask id="mask-2" fill="white">
                        <use xlink:href="#path-3"></use>
                    </mask>
                    <g id="Clip-10"></g>
                    <path d="M0.649270702,8.84543115 C0.792376865,8.84543115 0.878632635,8.77387807 0.90901819,8.63077191 L0.959987508,8.11127693 C1.15210263,8.3671037 1.37656367,8.56706026 1.6343508,8.71016642 C1.89213793,8.85327259 2.20579527,8.92482567 2.57434265,8.92482567 C2.9585729,8.92482567 3.30359598,8.84837169 3.61039207,8.69546374 C3.91718815,8.54353596 4.17693564,8.33475779 4.38963453,8.06912923 C4.60233342,7.80350066 4.76504316,7.48984332 4.87776377,7.12619684 C4.99048438,6.76353053 5.04733477,6.37047867 5.04733477,5.94900162 C5.04733477,5.47459489 4.99636545,5.05605837 4.895407,4.69339206 C4.79346836,4.32974558 4.64840184,4.02490985 4.46020743,3.77790469 C4.27201303,3.53187971 4.04461145,3.34662584 3.77702253,3.22214308 C3.50943361,3.09766033 3.21047895,3.03590904 2.87917838,3.03590904 C2.48416616,3.03590904 2.13326201,3.11922427 1.82646592,3.28683491 C1.51966983,3.45444555 1.24816019,3.67596605 1.01095683,3.95041623 L1.01095683,0.529590822 L0.000392071679,0.529590822 L0.000392071679,8.84543115 L0.649270702,8.84543115 Z M3.16735107,3.9562973 C3.34770404,4.03471164 3.50061199,4.16017458 3.62509475,4.33170594 C3.74859733,4.5032373 3.84367471,4.72181726 3.90934672,4.98940618 C3.97599891,5.2569951 4.00834482,5.57653352 4.00834482,5.94900162 C4.00834482,6.65277028 3.86523866,7.19480938 3.57902633,7.57511891 C3.29379418,7.95542844 2.8830991,8.14558321 2.34890143,8.14558321 C2.0773918,8.14558321 1.832347,8.09461389 1.61180668,7.99267525 C1.39126636,7.89171679 1.1913098,7.71626472 1.01095683,7.46827938 L1.01095683,4.7012335 C1.21777464,4.42678332 1.44419603,4.21408443 1.69120119,4.06313684 C1.93722617,3.91316942 2.22441868,3.83769562 2.55179853,3.83769562 C2.78116046,3.83769562 2.98699809,3.87690279 3.16735107,3.9562973 L3.16735107,3.9562973 Z M10.9980027,3.12608552 L10.1962161,3.12608552 C10.1325045,3.12608552 10.0727135,3.14568911 10.0188037,3.18587645 C9.96391364,3.22508362 9.92568665,3.27507276 9.90314253,3.33486369 L8.41817104,6.93114118 C8.38386477,7.01837713 8.35347921,7.10267254 8.32799455,7.18598777 C8.30152972,7.26832282 8.27506488,7.35261823 8.24860004,7.43985418 C8.22997663,7.35261823 8.20841269,7.26832282 8.18390821,7.18598777 C8.15940373,7.10267254 8.12999836,7.02033748 8.09667226,6.93702225 L6.56661253,3.33486369 C6.54406841,3.28291419 6.50780178,3.23488541 6.45879282,3.19077735 C6.40978386,3.14764946 6.3421515,3.12608552 6.25589573,3.12608552 L5.38647678,3.12608552 L7.74576811,8.51217023 L6.70187726,10.7822653 L7.44681345,10.7822653 C7.55267281,10.7822653 7.63010696,10.7597211 7.68107628,10.7146329 C7.7320456,10.6685645 7.77419331,10.6087735 7.80849958,10.5332997 L10.9980027,3.12608552 Z M19.7657056,7.25852103 C19.6225995,7.3869245 19.4804735,7.49670458 19.3393277,7.58884142 C19.1981819,7.68195844 19.0462541,7.75743224 18.8825642,7.81820335 C18.7188743,7.87799428 18.5404816,7.92210235 18.3483665,7.95052754 C18.1572316,7.97895274 17.940612,7.99267525 17.6994879,7.99267525 C17.3044757,7.99267525 16.9349481,7.92112217 16.5928656,7.77801601 C16.250783,7.63490984 15.9537887,7.42711185 15.703843,7.15462203 C15.4538973,6.88213222 15.2559011,6.54789111 15.1108346,6.15189871 C14.9657681,5.7568865 14.8932348,5.30698424 14.8932348,4.80317213 C14.8932348,4.31406271 14.9657681,3.87102171 15.1108346,3.4760095 C15.2559011,3.08099728 15.4578181,2.74577599 15.7175655,2.47132582 C15.977313,2.19687564 16.2870497,1.98515693 16.6467754,1.8361697 C17.005521,1.68718246 17.4024936,1.61268884 17.8347526,1.61268884 C18.0758767,1.61268884 18.2885756,1.63131224 18.4728493,1.66659869 C18.657123,1.70286532 18.8188525,1.74697339 18.9590182,1.79990306 C19.0982036,1.85185256 19.2187656,1.90870296 19.3197241,1.96849389 C19.4216627,2.029265 19.5098789,2.08513521 19.5853527,2.13806489 C19.6608265,2.19099457 19.7255183,2.23510263 19.7804083,2.27038908 C19.8343182,2.30665571 19.8862677,2.32429894 19.9352766,2.32429894 C19.9989883,2.32429894 20.0479972,2.31253679 20.0823035,2.28803231 C20.1156296,2.26352783 20.1460152,2.23216209 20.17248,2.19491528 L20.5282851,1.69208335 C20.1930638,1.37646565 19.8098137,1.12553978 19.379515,0.941266086 C18.9482362,0.756992396 18.4356025,0.664855551 17.8406337,0.664855551 C17.2388037,0.664855551 16.687943,0.765814009 16.1890317,0.966750745 C15.6901205,1.16768748 15.2627624,1.45095927 14.904997,1.81656611 C14.5472316,2.18119277 14.2698409,2.6183527 14.0718447,3.12608552 C13.8748286,3.63479853 13.7758305,4.19350067 13.7758305,4.80317213 C13.7758305,5.4128436 13.8679674,5.97154574 14.0522411,6.48025874 C14.2365148,6.98799157 14.4962623,7.42319114 14.8314835,7.78683762 C15.1667048,8.1504841 15.5715188,8.43277571 16.0449454,8.63371245 C16.5193521,8.83464918 17.0486489,8.93560764 17.6318555,8.93560764 C18.2983774,8.93560764 18.8668813,8.82876811 19.3393277,8.61410886 C19.8117741,8.39944962 20.2136475,8.10049496 20.5449481,7.71626472 L20.1156296,7.24773906 C20.0666207,7.1987301 20.0127108,7.17422562 19.9519397,7.17422562 C19.8921488,7.17422562 19.8294173,7.20265082 19.7657056,7.25852103 L19.7657056,7.25852103 Z M22.8317062,8.84543115 L22.8317062,4.63360113 C23.0502861,4.38855633 23.2874895,4.19546103 23.5462568,4.05235487 C23.8030638,3.9092487 24.0814347,3.83769562 24.378429,3.83769562 C24.7852033,3.83769562 25.0870985,3.95727748 25.2850947,4.19644121 C25.4821107,4.43560493 25.5811088,4.77082622 25.5811088,5.20406543 L25.5811088,8.84543115 L26.5857925,8.84543115 L26.5857925,5.20406543 C26.5857925,4.88060629 26.544625,4.58459217 26.4622899,4.31700325 C26.3789747,4.05039451 26.2574325,3.82201275 26.0976633,3.63185799 C25.9378941,3.44170322 25.7379375,3.29467634 25.4987738,3.19077735 C25.2605902,3.08785853 24.9841797,3.03590904 24.6724827,3.03590904 C24.2843318,3.03590904 23.9422492,3.11432337 23.6442747,3.27017186 C23.3472804,3.42602036 23.0757708,3.63479853 22.8317062,3.89356584 L22.8317062,0.529590822 L21.8270225,0.529590822 L21.8270225,8.84543115 L22.8317062,8.84543115 Z M27.9688254,3.12608552 L27.9688254,6.77333233 C27.9688254,7.09679146 28.0099929,7.39280558 28.0903676,7.65941432 C28.1717225,7.92700324 28.2932647,8.15440482 28.4549942,8.34259922 C28.6167238,8.53079363 28.8166804,8.67684033 29.0558441,8.78073933 C29.2950078,8.88365814 29.5704382,8.93560764 29.8831153,8.93560764 C30.2820483,8.93560764 30.635893,8.85229241 30.9446494,8.68468177 C31.2534059,8.51707112 31.5317768,8.29555062 31.7797621,8.02110045 L31.8591566,8.63665298 C31.8964034,8.77583843 31.9875601,8.84543115 32.1306662,8.84543115 L32.7285756,8.84543115 L32.7285756,3.12608552 L31.7238919,3.12608552 L31.7238919,7.34379662 C31.5053119,7.59178196 31.2661482,7.78585744 31.0064007,7.92504289 C30.7466532,8.06422833 30.4702427,8.13382106 30.1771691,8.13382106 C29.7743155,8.13382106 29.4734004,8.01521937 29.2734439,7.77801601 C29.0734873,7.54081264 28.9744892,7.20657153 28.9744892,6.77333233 L28.9744892,3.12608552 L27.9688254,3.12608552 Z M35.066303,8.84543115 C35.2094091,8.84543115 35.2956649,8.77387807 35.3260504,8.63077191 L35.3770198,8.11127693 C35.5681547,8.3671037 35.7935959,8.56706026 36.051383,8.71016642 C36.3091702,8.85327259 36.6228275,8.92482567 36.9913749,8.92482567 C37.3756051,8.92482567 37.7206282,8.84837169 38.0274243,8.69546374 C38.3342204,8.54353596 38.5939679,8.33475779 38.8066668,8.06912923 C39.0193657,7.80350066 39.1820754,7.48984332 39.294796,7.12619684 C39.4075166,6.76353053 39.464367,6.37047867 39.464367,5.94900162 C39.464367,5.47459489 39.4133977,5.05605837 39.3114591,4.69339206 C39.2105006,4.32974558 39.0654341,4.02490985 38.8772397,3.77790469 C38.6890453,3.53187971 38.4606635,3.34662584 38.1940548,3.22214308 C37.9264659,3.09766033 37.6275112,3.03590904 37.2962106,3.03590904 C36.9011984,3.03590904 36.5502943,3.11922427 36.2434982,3.28683491 C35.9367021,3.45444555 35.6642123,3.67596605 35.4270089,3.95041623 L35.4270089,0.529590822 L34.4164441,0.529590822 L34.4164441,8.84543115 L35.066303,8.84543115 Z M37.5843833,3.9562973 C37.7647363,4.03471164 37.9176442,4.16017458 38.0411468,4.33170594 C38.1656296,4.5032373 38.260707,4.72181726 38.326379,4.98940618 C38.392051,5.2569951 38.4253771,5.57653352 38.4253771,5.94900162 C38.4253771,6.65277028 38.2822709,7.19480938 37.9960586,7.57511891 C37.7098463,7.95542844 37.3001313,8.14558321 36.7659337,8.14558321 C36.494424,8.14558321 36.2483991,8.09461389 36.0288389,7.99267525 C35.8082986,7.89171679 35.608342,7.71626472 35.4270089,7.46827938 L35.4270089,4.7012335 C35.6348069,4.42678332 35.8612283,4.21408443 36.1072533,4.06313684 C36.3542584,3.91316942 36.6414509,3.83769562 36.9688308,3.83769562 C37.1981927,3.83769562 37.4030502,3.87690279 37.5843833,3.9562973 L37.5843833,3.9562973 Z M41.3776768,8.84543115 C41.520783,8.84543115 41.6070388,8.77387807 41.6374243,8.63077191 L41.6883936,8.11127693 C41.8805088,8.3671037 42.1049698,8.56706026 42.3627569,8.71016642 C42.620544,8.85327259 42.9342014,8.92482567 43.3027488,8.92482567 C43.686979,8.92482567 44.0320021,8.84837169 44.3387982,8.69546374 C44.6455943,8.54353596 44.9053418,8.33475779 45.1180406,8.06912923 C45.3307395,7.80350066 45.4934493,7.48984332 45.6071501,7.12619684 C45.7198707,6.76353053 45.7757409,6.37047867 45.7757409,5.94900162 C45.7757409,5.47459489 45.7257518,5.05605837 45.6238131,4.69339206 C45.5218745,4.32974558 45.376808,4.02490985 45.1886136,3.77790469 C45.0004191,3.53187971 44.7730176,3.34662584 44.5054286,3.22214308 C44.2388199,3.09766033 43.9388851,3.03590904 43.6085647,3.03590904 C43.2125723,3.03590904 42.8616681,3.11922427 42.554872,3.28683491 C42.248076,3.45444555 41.9765663,3.67596605 41.7393629,3.95041623 L41.7393629,0.529590822 L40.7287982,0.529590822 L40.7287982,8.84543115 L41.3776768,8.84543115 Z M43.8957572,3.9562973 C44.0770903,4.03471164 44.2290181,4.16017458 44.3535009,4.33170594 C44.4779836,4.5032373 44.5720808,4.72181726 44.638733,4.98940618 C44.704405,5.2569951 44.7377311,5.57653352 44.7377311,5.94900162 C44.7377311,6.65277028 44.594625,7.19480938 44.3084126,7.57511891 C44.0222003,7.95542844 43.6115052,8.14558321 43.0773076,8.14558321 C42.8067781,8.14558321 42.5607531,8.09461389 42.3402128,7.99267525 C42.1206527,7.89171679 41.9197159,7.71626472 41.7393629,7.46827938 L41.7393629,4.7012335 C41.9461808,4.42678332 42.1726022,4.21408443 42.4196073,4.06313684 C42.6666125,3.91316942 42.9528248,3.83769562 43.2802046,3.83769562 C43.5105468,3.83769562 43.7154042,3.87690279 43.8957572,3.9562973 L43.8957572,3.9562973 Z" id="Fill-9" fill="#150F96" mask="url(#mask-2)"></path>
                </g>
                <line x1="115.206244" y1="4.38330972e-14" x2="115.206244" y2="20.2338392" id="Stroke-12" stroke="#150F96" stroke-width="0.806687482"></line>
                <path d="M48.6310029,29.739029 C48.8270387,29.8213641 48.9975899,29.9350648 49.1416763,30.0811115 C49.2857626,30.2261781 49.3994634,30.3977094 49.4817984,30.5937453 C49.5631533,30.7897811 49.6043208,31.0005196 49.6043208,31.2249807 C49.6043208,31.4533624 49.5631533,31.6641009 49.4817984,31.8591566 C49.3994634,32.0542123 49.2857626,32.2237833 49.1416763,32.3678696 C48.9975899,32.511956 48.8270387,32.6246766 48.6310029,32.7070116 C48.4349671,32.7893467 48.2232484,32.8305142 47.9948666,32.8305142 C47.767465,32.8305142 47.5547661,32.7893467 47.3587303,32.7070116 C47.1626945,32.6246766 46.9931235,32.511956 46.8480569,32.3678696 C46.7039706,32.2237833 46.59125,32.0542123 46.5089149,31.8591566 C46.4265799,31.6641009 46.3854124,31.4533624 46.3854124,31.2249807 C46.3854124,31.0005196 46.4265799,30.7897811 46.5089149,30.5937453 C46.59125,30.3977094 46.7039706,30.2261781 46.8480569,30.0811115 C46.9931235,29.9350648 47.1626945,29.8213641 47.3587303,29.739029 C47.5547661,29.6566939 47.767465,29.6155264 47.9948666,29.6155264 C48.2232484,29.6155264 48.4349671,29.6566939 48.6310029,29.739029 L48.6310029,29.739029 Z M47.4518473,29.9527081 C47.286197,30.0252413 47.1430909,30.1232592 47.0215487,30.247742 C46.9000064,30.3712446 46.8059092,30.5172913 46.7382769,30.6839217 C46.6696643,30.8515324 46.6363382,31.0318854 46.6363382,31.2249807 C46.6363382,31.4190561 46.6696643,31.5984289 46.7382769,31.7660396 C46.8059092,31.9336502 46.9000064,32.0787168 47.0215487,32.2031995 C47.1430909,32.3267021 47.286197,32.4257002 47.4518473,32.4972533 C47.6174976,32.5697865 47.7988308,32.605073 47.9948666,32.605073 C48.1879619,32.605073 48.3673347,32.5697865 48.5339652,32.4972533 C48.6996154,32.4257002 48.8427216,32.3267021 48.9642638,32.2031995 C49.085806,32.0787168 49.1808834,31.9336502 49.249496,31.7660396 C49.3190887,31.5984289 49.353395,31.4190561 49.353395,31.2249807 C49.353395,31.0318854 49.3190887,30.8515324 49.249496,30.6839217 C49.1808834,30.5172913 49.085806,30.3712446 48.9642638,30.247742 C48.8427216,30.1232592 48.6996154,30.0252413 48.5339652,29.9527081 C48.3673347,29.881155 48.1879619,29.8448884 47.9948666,29.8448884 C47.7988308,29.8448884 47.6174976,29.881155 47.4518473,29.9527081 L47.4518473,29.9527081 Z M47.4106798,32.1551707 L47.4106798,30.2947906 L48.1252304,30.2947906 C48.3349888,30.2947906 48.4888769,30.3388987 48.5859147,30.4271148 C48.6819722,30.5153309 48.7309812,30.6427542 48.7309812,30.8103649 C48.7309812,30.8907396 48.7182388,30.9613125 48.6937344,31.0220836 C48.6692299,31.0828547 48.6349236,31.133824 48.5917957,31.1759717 C48.5486678,31.2171392 48.4986787,31.2504653 48.4428085,31.2749698 C48.3869383,31.2994743 48.3261672,31.3171175 48.2634357,31.3288797 L48.8172369,32.1551707 L48.5486678,32.1551707 L48.0252522,31.3288797 L47.6400417,31.3288797 L47.6400417,32.1551707 L47.4106798,32.1551707 Z M48.1487547,31.1279429 C48.2163871,31.1240222 48.276178,31.1112799 48.3281275,31.0906961 C48.380077,31.0710925 48.4222247,31.0387466 48.4535905,30.9936584 C48.4849562,30.9485701 48.5016192,30.887799 48.5016192,30.8103649 C48.5016192,30.7437127 48.4888769,30.6898028 48.4643724,30.6496155 C48.439868,30.6094281 48.4065419,30.5770822 48.3643942,30.5525777 C48.3232266,30.5280733 48.276178,30.5114102 48.2242285,30.5025886 C48.172279,30.493767 48.117389,30.4898463 48.0595584,30.4898463 L47.6400417,30.4898463 L47.6400417,31.1348042 L47.9429171,31.1348042 C48.0125098,31.1348042 48.0811224,31.1318636 48.1487547,31.1279429 L48.1487547,31.1279429 Z" id="Fill-14" fill="#150F96"></path>
            </g>
        </g>
    </g>
</svg>